<svg id="Layer_1" data-name="Layer 1" xmlns="http://www.w3.org/2000/svg" viewBox="0 0 56.12 56.2"><defs><style>.cls-1{fill:#1b2e47;}.cls-2{fill:#f2571e;}</style></defs><path class="cls-1" d="M52.66,14.58l-.22-.39H41.71l1.54,1.86a19.62,19.62,0,0,1,1.2,22.53L29.36,23.43a2.12,2.12,0,0,0-1.4-.59,2,2,0,0,0-1.39.58l-15,15a19.36,19.36,0,0,1,1.29-22.32l1.55-1.87H3.7l-.22.39a28.14,28.14,0,0,0-.72,25.71l.06.12a28.38,28.38,0,0,0,3.26,5.16,45.69,45.69,0,0,0,3.9,4,2,2,0,0,0,2.73,0L28,34.17,43.38,49.55a2,2,0,0,0,1.42.58,1.9,1.9,0,0,0,1.26-.51,47.5,47.5,0,0,0,3.87-3.9,28,28,0,0,0,3.47-5.54l.08-.15a28.21,28.21,0,0,0-.82-25.45Z"/><path class="cls-2" d="M28.06,8.6a19.33,19.33,0,0,1,11.08,3.48h12A28.05,28.05,0,0,0,5,12.08H17A19.33,19.33,0,0,1,28.06,8.6Z"/><path class="cls-2" d="M28.06,47.6a19.46,19.46,0,0,1-8.51-2L13.22,52a28,28,0,0,0,29.6,0l-6.33-6.33A19.4,19.4,0,0,1,28.06,47.6Z"/></svg>